<svg version="1" xmlns="http://www.w3.org/2000/svg" width="2730.667" height="2730.667" viewBox="0 0 2048.000000 2048.000000"><path d="M1133.6 160.2c-.4 1.3-.7 4.8-2.6 35.8-.5 8-1.3 20.8-1.9 28.5-2.5 31.8-3.3 42.6-4 55-2.7 42.9-4.2 64-5.1 72-.5 4.9-1.2 15.5-1.5 23.5-.3 8-1 19.2-1.5 25-.5 5.8-1.9 25.1-3.1 43-1.4 21.2-2.6 33-3.4 33.8-1.2 1.4-8.8 1.8-77.5 4.1-16.8.6-41.7 1.6-55.5 2.1-13.7.6-40.3 1.5-59 2-18.7.5-37.4 1.2-41.5 1.5-4.2.3-8.1.2-8.9-.4-.8-.5-1.8-3.1-2.1-5.8-.4-2.6-1.8-11.8-3-20.3-2.2-15.2-2.6-18.1-4.9-36.5-.6-5-1.7-13.1-2.5-18-1.5-9-3-19.8-4.6-33-.5-3.9-1.9-13.5-3-21.5s-2.5-17.7-3-21.5c-1.5-12.3-3.1-23.7-4.5-33-.8-5-2.1-14.6-3-21.5-.9-6.9-2-15.1-2.6-18.3-.6-3.2-1.7-11.3-2.6-18-3.5-27.7-6.1-45.8-7.3-52-.6-2.7-1-7-1-9.5 0-5.2-1.3-8.3-2.9-6.7-.5.6-1.4 4.6-2 9-1.4 10.5-3.5 23.2-6.1 38-1.2 6.6-2.5 14.5-3 17.5s-1.8 11.1-3 18c-1.1 6.9-2.5 15-3 18s-1.8 11.1-3 18-2.6 15-3 18c-1.8 11.1-3.8 23.6-4.9 29.5-.6 3.3-1.8 10.5-2.7 16-.8 5.5-2.2 13.6-3 18-1.3 7.3-2.1 12.2-4.4 27.5-.5 3-1.8 10.9-3 17.5s-2.5 14.7-2.9 18c-.9 5.9-1.8 11.2-4.6 27-.8 4.4-2 11.4-2.6 15.5-2.2 14.9-4.9 31.6-6.9 42.5-.5 2.7-1.4 8.1-2 12-.7 3.8-1.9 11-2.7 16-.8 4.9-1.9 11.7-2.4 15-.4 3.3-1.3 8.5-1.9 11.5-1 5.6-4.9 28.8-7.6 46-.9 5.2-2.2 13.3-3 18-.8 4.7-2.1 12.5-2.9 17.5-.8 4.9-2.1 13-2.9 18-.8 4.9-2 12.1-2.6 16-.6 3.8-1.5 9.2-2 12-.5 2.7-1.9 10.8-3 18-1.2 7.1-2.5 15.2-3 18-.5 2.7-1.8 10.6-3 17.5-1.1 6.9-2.5 15-3 18s-1.4 8.4-1.9 12c-.9 5.7-2.1 13.1-6.1 37-.5 3-1.6 9.5-2.4 14.5-.7 4.9-1.9 11.7-2.5 15-.6 3.3-1.8 10.5-2.6 16-.9 5.5-2.2 13.6-3 18-.8 4.4-2.1 12.5-3 18-.9 5.5-2 12.2-2.5 15-.9 4.8-3.3 19.1-5 30.5-.5 3-1.8 10.9-3 17.5-1.1 6.6-2.5 15.1-3 19-.6 3.8-1.2 7.6-1.5 8.5-.2.8-.9 4.4-1.4 8-.5 3.6-1.7 10.8-2.5 16-.9 5.2-2.1 12.2-2.6 15.5-.5 3.3-1.7 9.8-2.5 14.5-1.4 8.1-2.6 15.6-4.5 28-.5 3-1.8 10.9-3 17.5-1.1 6.6-2.7 16-3.5 21-2.7 17.3-6 37.3-7.4 45-.5 2.7-1.9 11.3-3.1 19-1.2 7.7-2.5 15.6-3 17.5-.7 3.1-3.5 19.7-7.6 46-2.1 13.7-3.3 20.8-5.4 33-1.1 6.3-2.7 16-3.5 21.5-.8 5.5-1.7 10.7-2 11.5-.2.8-.9 4.4-1.4 8-1 6.3-3.1 19-4.9 29.8-.5 2.9-1.4 5.8-2 6.4-1.3 1.3-1.9.1-6-13.7-1.6-5.5-4.4-14.7-6.1-20.5-1.7-5.8-3.9-13-4.8-16-.8-3-2.1-7.3-2.8-9.5-1.8-5.8-4.1-13.6-7.5-25.5-3.6-12.5-5.8-19.9-7.7-26-.7-2.5-2.5-8.6-3.9-13.5-3.2-11.2-4.7-16.5-6.8-23.5-.9-3-2.1-6.9-2.5-8.5-1.1-3.7-15.1-51.7-18.5-63.3-.8-2.6-3.4-11.7-5.9-20.2-2.5-8.5-6-20.2-7.7-26-1.8-5.8-3.8-12.8-4.6-15.5-.7-2.8-2.1-7.5-3-10.5-.9-3-2.2-7.8-2.8-10.5-.8-3.1-1.8-5-2.7-5-1.4 0-2 3.4-4.8 26-.6 4.4-2 14.3-3.1 22-1.2 7.7-2.5 17.1-3 21-1 8-3.5 25.9-5 35.5-.9 6-4.1 30.2-5.5 41-.5 4.8-2.2 16.8-5.5 41.5-1.1 8.2-2.5 18.4-3 22.5-.5 4.1-1.8 14.2-3 22.5-1.1 8.2-2.5 18.4-3 22.5-.5 4.1-1.8 14.2-3 22.5-1.1 8.2-2.5 18.8-3.1 23.5-.5 4.6-1.2 9.3-1.4 10.5-.3 1.1-.9 5.8-1.5 10.5-.5 4.7-1.9 15.2-3 23.5-1.2 8.2-2.5 18.4-3 22.5-.5 4.1-1.9 14-3 22s-2.5 18.1-3 22.5c-.5 4.4-1.9 14.7-3 23-2.8 19.7-4.9 36.2-6 45.5-.4 4.1-1.5 12.2-2.4 18-.8 5.8-2 14.1-2.6 18.5-1.9 15-4.1 32-5.5 42-.8 5.5-2.1 15.8-3 23-.9 7.1-2.2 17.3-3 22.5-1.5 9.3-2.8 19.5-4.5 33.5-.8 6.9-2 15.4-4.2 31-.6 4.4-1.2 9.8-1.2 12l-.1 4 4.5-.2c7-.4 27.8-3.2 35.1-4.8 3.7-.8 8.3-1.5 10.2-1.5 1.9 0 5.1-.7 7-1.5 2-.8 5.8-1.5 8.4-1.5 2.6 0 5.7-.7 6.7-1.5 1.1-.8 4.1-1.5 6.6-1.5 2.6 0 6.9-.7 9.6-1.5 2.7-.8 6.7-1.5 9-1.5 2.2 0 4.5-.5 5.1-1.1.6-.6 3.9-1.3 7.4-1.6 3.5-.2 8.1-1.1 10.2-1.9 4.6-1.7 11.9-1.8 13.5-.2.9.9 1.2.7 1.2-.9s.8-2.2 3.8-2.7c2-.3 4.9-.6 6.3-.6 1.5 0 4-.7 5.5-1.5 1.6-.8 5.5-1.5 8.6-1.5 3.1 0 5.9-.4 6.2-.9.4-.5 3-1.2 5.9-1.6 2.8-.4 7.7-1.3 10.7-2.1 3-.8 7.8-1.4 10.7-1.4 3.2 0 6.3-.6 7.7-1.5 1.3-.9 4.1-1.5 6.2-1.4 2.2.1 4.8-.2 5.9-.9 2.1-1.1 15.3-3.9 24.6-5.2 6.4-.8 14.1-2.6 21.1-4.6 2.6-.8 6.3-1.4 8.3-1.4 3.4 0 18.5-3.1 24.9-5.1 1.6-.5 4.9-.9 7.3-.9 2.4 0 6-.7 8-1.5 1.9-.8 5.8-1.5 8.6-1.5 3.3 0 5.7-.6 6.9-1.7 1.1-1 2.2-1.3 2.7-.7.5.5 1.1 5.6 1.4 11.4.3 5.8 1 15.7 1.5 22 .6 6.3 1.5 25.7 2.2 43 .6 17.3 1.4 36.2 1.8 42 .9 13.1-1.5 11.6 26.7 17.1 5.5 1.1 14.1 2.4 19 2.9 5 .5 12.2 1.3 16 1.9 14 2.1 25.3 3.3 40 4.1 8.3.5 16.6 1.1 18.5 1.4 6.5 1 18.3 1.5 52 2.1 18.4.3 34.2.8 35.1 1.1 1.3.3 1.6 1.5 1.3 4.9-.2 4.4-.2 4.5 2.7 4.5 1.6 0 2.9-.4 2.9-.9 0-1.6 3.2-2.2 4.7-.9 1.3 1 1.5.9 1.2-.7-.3-1.1-1.1-2-1.9-2-2.7-.1-5.8-1.5-6.4-3-.4-1.2.9-1.4 7.6-1.4 5.6 0 7.7.4 7 1.1-.7.7-.7 1.9-.1 3.6.7 1.9.6 2.9-.8 4.4-1.4 1.6-1.5 2-.2 3.1 2 1.8 13.9 1.1 13.9-.9 0-.7-1.1-1.6-2.4-2-1.6-.4-2.3-1.1-1.9-2 .4-1 2.3-1.4 6.9-1.4 4.2 0 7.3-.6 8.9-1.6 1.3-.9 2.8-1.3 3.4-1 .5.3 1.6.3 2.5 0 3.3-1.3 1.4-2.1-5-2.2-5.8-.1-6.7.1-7.1 1.8-.3 1.1-.9 2-1.4 2-.5 0-.6-.7-.3-1.5.4-.8-.1-1.7-.9-2.1-1.8-.6-7.7 2.2-7.7 3.7 0 1.6-3.5.5-3.5-1.1 0-.8-.4-2.1-.8-2.8-.5-.7-.3-1.4.5-1.6.7-.3 16.7-.7 35.4-1 21.2-.4 38.4-1.2 45.5-2.1 6.2-.8 15.9-1.5 21.7-1.5 5.7 0 11.1-.4 12-.9.9-.5 6-1.2 11.2-1.5 5.2-.4 12.7-1.1 16.5-1.7 3.9-.5 11.7-1.4 17.5-1.9 5.8-.5 12.5-1.4 15-1.9 4.9-1.1 18-1.5 18-.5 0 2.1-3.5 3.4-9.4 3.4-3.5 0-7.6.4-9 1-3.2 1.2-3.5 4-.4 4 1.2 0 2.9.7 3.9 1.6 2.3 2.1 4.9 1.2 4.2-1.4-.3-1.4.2-2.1 1.9-2.5 4-1.1 5.6-.8 6.3 1.4.6 1.9.8 2 2.6.3 1-.9 1.9-2.3 1.9-2.9 0-.7.7-1.8 1.5-2.5 2.1-1.7 1.9-3-.5-3-1.1 0-2-.4-2-.9 0-1.3 3.8-2.1 11-2.1 3.7 0 7.6-.7 9-1.5 1.4-.8 5-1.4 8.1-1.5 3.1 0 7.3-.7 9.2-1.5 2-.8 5.2-1.5 7.1-1.5 2 0 5.3-.6 7.3-1.4 2.1-.8 5.6-1.7 7.8-2.1 2.2-.4 6-1.2 8.5-2 2.5-.7 7.4-2.1 11-3.1 8.8-2.3 13.6-5.1 15.1-8.6.9-2.3.9-10.1-.1-35.6-.8-21.2-1-43.3-.5-63l.7-30.2 5.2.6c2.8.3 6.7 1.1 8.6 1.7 1.9.7 6.2 1.2 9.5 1.3 3.3 0 10.3.6 15.5 1.3 10 1.3 18.5 2.3 36.5 4.1 6.1.6 13 1.5 15.5 2.1 5 1.1 15.9 2.3 35 3.9 6.9.6 13.9 1.5 15.5 2 1.7.5 7.6 1.4 13.3 2.1 10.7 1.3 13.5 2.6 11.2 5.4-1.7 2.1-3 1.9-3-.5 0-1.1-.7-2-1.5-2s-1.5.9-1.5 1.9c0 1 .7 2.1 1.5 2.5.8.3 1.5 1.2 1.5 2.1 0 1.9 1 1.9 3.8-.1 1.5-1 2.1-2.2 1.7-3.2-.3-.8 0-1.9.7-2.4 1.9-1.2 18.6-1 21 .3 1.1.6 5 1.2 8.6 1.4 9.6.4 18.2 1.6 18.2 2.5 0 .8-7.4 2-12.2 2-1.7 0-2.7.4-2.3 1 .4.6 2.3.7 4.5.4 3.2-.5 4-.3 5 1.6.7 1.4 1.7 1.9 2.7 1.5.9-.3 1.9-.2 2.2.3 1.1 1.5 9.1 4.1 9.7 3.1.4-.6 1.1-.6 1.9.1 1 .8 2 .8 3.3.1 1-.5 3-.8 4.3-.5 2.3.4 2.3.4.2-.5-1.2-.6-3.1-1.9-4.3-3.1-1.6-1.6-3.1-2-6.7-1.8-4.9.3-7.1-1.6-3.4-3 2.4-.8 3.8-.7 40.1 3.8 4.1.5 10.9 1.2 15 1.5 4.1.3 10.8 1 14.8 1.5 4 .6 11.4 1 16.4 1 4.9 0 13.2.5 18.5 1.1 7.9 1 9.7.9 10.4-.2.5-.8.6-2.1.4-2.9-.6-2-4.2-18.5-6.1-28-2.9-14.4-3.3-16.6-6.8-33.5-5-24-12.5-59.8-14-67.5-.8-3.6-3.5-16.9-6.1-29.5-2.6-12.7-5.6-27.1-6.7-32-1-5-2.3-11.3-2.8-14-.5-2.8-1.9-9.3-3-14.5-1.1-5.2-2.5-11.8-3-14.5-.5-2.8-1.9-9.3-3-14.5-1.2-5.2-2.5-11.5-3-14-3.8-19.6-6.4-32.2-9-44-1.2-5.2-2.5-11.8-3-14.7-.5-2.8-1.3-6.8-1.9-9-.5-2.1-1.7-7.6-2.6-12.3-.9-4.7-2.3-11.4-3-15-.8-3.6-2.1-10.1-3-14.5-.9-4.4-2.3-10.9-3-14.5-.8-3.6-2.1-10.1-3-14.5-1-4.4-2.3-10.9-3.1-14.5-1.3-6.3-6.7-33-7.7-38-.3-1.4-1.4-6.8-2.5-12s-3.4-16.3-5.1-24.5c-1.7-8.3-4.5-21.5-6.1-29.5-4.4-20.6-6.1-28.9-7-33.5-1.8-9.6-4.2-21.5-5.5-27-.8-3.3-2.3-10.5-3.4-16-1.2-5.5-3.5-16.5-5.1-24.5-1.7-8-3.8-17.7-4.5-21.5-.8-3.9-2.6-12.4-4-19s-2.5-12.1-2.5-12.2c0-.2-.6-.3-1.4-.3-1.5 0-2.6 2.9-2.6 6.9 0 1.4-.7 5.4-1.5 9-1.5 6.4-2.8 12.3-5.9 26.6-.8 3.8-2.7 12.4-4.2 19-2.4 11.2-6.4 29.8-10.1 47.5-.8 4.1-2.1 10.2-2.8 13.5-.7 3.3-2 9.4-2.9 13.5-.9 4.1-2.5 11.8-3.6 17-1.1 5.2-3.2 14.9-4.5 21.5-1.4 6.6-3.4 16.3-4.5 21.5-1.1 5.2-2.5 11.5-3 14s-1.9 8.8-3 14c-2.5 11.3-3.4 16-5.4 26.3-.8 4.2-1.7 8.1-2 8.5-.3.5-1 3.5-1.5 6.8-.6 3.2-1.7 9-2.6 12.9-3.9 17.3-6.5 30.2-6.5 32.3 0 2-2.4 4.1-3.5 3.1-.2-.2-1.8-6-3.5-12.9s-3.8-15-4.5-18c-1.6-6-9.4-38.4-12.6-52-1.1-4.7-2.4-10.1-2.9-12-.5-1.9-1.8-7.3-2.9-12-4-17.4-8.1-34.6-9-37.5-.5-1.7-1.2-4.8-1.5-7-.4-2.2-1.1-5.1-1.5-6.5-.5-1.4-1.9-6.8-3.1-12-1.2-5.2-3.5-14.9-5.1-21.5-1.5-6.6-4.9-20.8-7.4-31.5s-5-21.1-5.5-23c-.5-1.9-1.9-7.6-3-12.5-1.2-5-2.5-10.6-3-12.5-.5-1.9-1.9-7.6-3-12.5-1.2-5-2.7-11.5-3.5-14.5-.8-3-2.9-11.6-4.6-19-1.7-7.4-3.5-15.1-4-17-.8-3.3-3.4-13.9-10.9-45.3-7.8-32.9-9.2-38.6-10.5-44.2-1.4-6-4.6-19.4-10.4-43.5-1.6-6.9-3.9-16.6-5.1-21.5-1.1-5-2.5-10.6-3-12.5-.5-1.9-1.5-6.4-2.4-10-.8-3.6-2.8-12.1-4.5-19-4.9-20.4-8.8-36.7-12-50.3-1.7-7-4.4-18.2-6.1-25-1.6-6.7-3.4-14.2-3.9-16.7-1.3-6.1-5.9-25.8-7-29.5-.5-1.7-2.5-10.2-4.6-19-2-8.8-4-17.6-4.5-19.5-.5-1.9-1.9-7.6-3-12.5-1.2-5-2.5-10.6-3-12.5-.5-1.9-2.5-10-4.4-18-1.9-8-4.9-20.1-6.5-27-4.7-19.5-7.8-32.7-10-42.5-1.2-5-2.8-11.5-3.5-14.5-.8-3-2.1-8.4-3-12-.8-3.6-2.9-12.4-4.6-19.5-1.7-7.2-3.5-14.8-4-17-.9-4.1-5.9-24.8-11-46-1.6-6.6-3.8-16.1-5-21-1.1-5-2.5-10.6-3-12.5-1-4-3-12.5-6-25.5-1.1-5-2.5-10.6-3-12.5-.5-1.9-1.9-7.6-3-12.5-1.1-5-2.5-10.6-3-12.5-.5-1.9-1.8-7.3-2.9-12-3-12.9-11.1-47-12.1-51-.5-1.9-1.8-7.6-3-12.5-1.2-5-2.6-10.6-3.1-12.5-1-4.1-6.4-26.9-10.9-46-4.5-19.6-5.2-22-6.1-22.6-.5-.3-1.1.1-1.3.8zM1515.5 1684c-.3.5-1.3 1-2.1 1s-1.4-.5-1.4-1c0-.6.9-1 2.1-1 1.1 0 1.7.4 1.4 1z"/><path d="M1298.8 1652.7c-2.1.5-2.3 2.4-.6 4.1 1.3 1.3 6.8 1.7 6.8.4 0-1.2-3-5.2-3.8-5.1-.4.1-1.5.3-2.4.6zM1292 1658.9c0 1 .7 2.2 1.6 2.5 1.2.5 1.5.2 1-1-.3-.8-.6-2-.6-2.5s-.4-.9-1-.9c-.5 0-1 .9-1 1.9zM1330.5 1660c-.3.5-.1 1 .4 1 .6 0 1.1-.5 1.1-1 0-.6-.2-1-.4-1-.3 0-.8.4-1.1 1zM1321 1662.5c0 .8.5 1.5 1 1.5.6 0 1-.7 1-1.5s-.4-1.5-1-1.5c-.5 0-1 .7-1 1.5zM1351 1662c0 .5.7 1 1.5 1s1.5-.5 1.5-1c0-.6-.7-1-1.5-1s-1.5.4-1.5 1zM1387.5 1665.9c-.3.5-.1 1.2.5 1.6 1.2.7 3-.2 3-1.6 0-1.2-2.7-1.2-3.5 0zM1377.8 1666.7c.7.3 1.6.2 1.9-.1.4-.3-.2-.6-1.3-.5-1.1 0-1.4.3-.6.6zM1393.4 1668.2c-1.2 1.8.8 4.8 3.1 4.8 3.1 0 4.3-2 2.2-3.5-.9-.7-1.4-1.5-1.1-1.8.4-.3-.4-.5-1.6-.4-1.2.1-2.4.5-2.6.9zM1411.5 1669c-.3.5-1.5 1-2.6 1-1 0-1.9.4-1.9 1 0 .5.7 1 1.5 1 .9 0 1.8.7 2.1 1.5.4.8 1.4 1.5 2.3 1.5 1.4-.1 1.4-.2-.1-1.4-2.7-2-2.2-3.6 1.2-3.6 1.7 0 3-.5 3-1 0-.6-1.1-1-2.4-1-1.4 0-2.8.4-3.1 1zM1421.7 1669.7c-.4.3-.7 2.1-.7 4 0 3.1.2 3.3 2 2.3 2.7-1.5 5.2-.6 8.9 3.2 1.7 1.7 3.4 2.8 3.8 2.4.4-.4-.7-2-2.5-3.4-4.3-3.6-4.1-4.6.9-3.9 4.8.6 6.9.1 6.9-1.9 0-1-1.4-1.4-5.1-1.4-3.1 0-4.8.4-4.4 1 .4.6-.7 1-2.4 1-3.5 0-3.9-.7-1.3-2.6 1.5-1.2 1.3-1.3-1.9-1.4-2 0-3.9.3-4.2.7zM756.1 1675.9c-.6 1-.7 2.1-.4 2.5.9.8 3.3-1.4 3.3-3 0-2-1.8-1.7-2.9.5zM1458.8 1675.3c-2 1.6-1.2 3.2 2.2 4 2.4.6 2.4.6.5-1-1.9-1.5-1.9-1.5 1-1 1.7.3 4.3.9 5.8 1.3 2 .5 3.3.1 4.7-1.1 1.1-1 2-2.1 2-2.5 0-1.3-14.4-1-16.2.3zM732 1678.5c-1.2 1.5-.6 3.5 1.1 3.5.5 0 .9-.7.9-1.5s.5-1.5 1.1-1.5c.5 0 .7-.5.4-1-.9-1.4-2.1-1.2-3.5.5zM1481.5 1678c-.3.6.1 1.2.9 1.5.9.3 2.3.7 3.2 1 .9.3 1.4 1.4 1.2 2.7-.2 1.7-.9 2.2-2.5 2-1.6-.2-2.3.2-2.3 1.2 0 1.9 5.5 2.3 6.5.5.4-.6 1.4-.8 2.2-.5 1.1.5 1.3.2.9-1-.3-.8-.6-2.3-.6-3.3 0-3.1-8-6.5-9.5-4.1zM742.3 1679.7c-2.3.9-1.4 3.3 1.1 3.3 2.8 0 4.2-2.6 2-3.4-.9-.3-1.6-.6-1.7-.5-.1 0-.8.3-1.4.6zM1422.5 1680c.3.5.8 1 1.1 1 .2 0 .4-.5.4-1 0-.6-.5-1-1.1-1-.5 0-.7.4-.4 1zM1445 1681.5c0 .8.9 1.5 2 1.5 2.4 0 2.7-1.5.4-2.4-2.2-.9-2.4-.8-2.4.9zM1525 1681c0 .5.4 1 .9 1s1.1.9 1.4 1.9c.6 2.5 10.6 5.6 14.5 4.6 1.5-.4 2.1-1 1.5-1.2-.7-.3-1.3-1.1-1.3-1.8 0-1.6-1.6-2.1-9.2-3-3.2-.3-5.8-1.1-5.8-1.6s-.4-.9-1-.9c-.5 0-1 .4-1 1zM711 1684c-1.2.8-.9 1 1.3 1 1.5 0 2.7-.5 2.7-1 0-1.3-2-1.3-4 0zM734.5 1684c.3.5 1.2 1 2 1s1.7-.5 2-1c.4-.6-.5-1-2-1s-2.4.4-2 1zM1546.7 1685.6c-.6 3.2 1.8 4.4 4.1 2 1.6-1.6 1.6-1.8-.2-3.2-2.7-2-3.3-1.8-3.9 1.2zM1562.6 1686.8c-.3.5.8 1.2 2.4 1.6 1.8.3 3 1.2 3 2.1 0 .8.3 1.5.8 1.5 1 0 3.5-4.1 2.9-4.7-1.1-1-8.5-1.5-9.1-.5zM1553.2 1688.2c.5 1.5 2.8 2.3 2.8 1 0-.5-.7-1.3-1.6-1.6-1-.4-1.4-.1-1.2.6zM672.7 1689.7c-2.3 2.2 3.2 2.7 6.8.6 1.8-1.1 1.5-1.2-2.1-1.3-2.2 0-4.4.3-4.7.7zM657 1694.4c0 .8-.9 1.7-1.9 2.1-2 .6-2 .6 0 2.6 2.4 2.4 4.7 1.5 7.9-3.1 2-2.8 2-3 .3-3-1.1 0-2.4.5-3.1 1.2-.9.9-1.2.9-1.2 0 0-.7-.4-1.2-1-1.2-.5 0-1 .6-1 1.4zM640.3 1697.2c-3.6 2.5-4.1 4.3-1.7 5.2 2.6 1 5-.2 7.9-3.9l2.6-3.5h-2.8c-1.6 0-4.3 1-6 2.2zM622.8 1700.5c-1 2.2-1.5 2.4-4.9 1.9-4-.7-9.9 1-9.9 2.8 0 .5.5.6 1.2.2.7-.4 3.2-.9 5.5-1 3.7-.3 4.3 0 4.3 1.7 0 1.3.7 1.9 2.3 1.9 3.2 0 4-1 2-2.5-1.4-1.1-1.5-1.6-.5-2.8.7-.8 2.5-1.8 3.9-2.2 2.1-.5 2.4-.8 1.2-1.6-2.4-1.5-3.9-1-5.1 1.6zM595.8 1705.7c.6.2 1.8.2 2.5 0 .6-.3.1-.5-1.3-.5-1.4 0-1.9.2-1.2.5zM628.5 1707c.3.5.8 1 1.1 1 .2 0 .4-.5.4-1 0-.6-.5-1-1.1-1-.5 0-.7.4-.4 1zM588 1708c-1.3.8-1.3 1.1 0 2.4 1.3 1.4 1.6 1.2 2.7-.9 1.2-2.7.1-3.3-2.7-1.5zM578.3 1708.7c-1.8.6-1.6 3.3.1 3.3 1.9 0 3.1-1.9 2-3-.5-.4-1.5-.5-2.1-.3zM598.5 1710.1c-.4.6-.4 1.3-.1 1.6.8.8 3.6-.5 3.6-1.7 0-1.3-2.7-1.3-3.5.1zM570.5 1711c.3.5 1 1 1.6 1 .5 0 .9-.5.9-1 0-.6-.7-1-1.6-1-.8 0-1.2.4-.9 1zM607 1711c0 .5.9 1 2 1s2-.5 2-1c0-.6-.9-1-2-1s-2 .4-2 1zM559.7 1712.4c-1.1.8-1.4 1.7-.8 2 .5.4.7 2.3.5 4.4-.6 3.7-.6 3.7 1.3 1.6 1-1.2 2.8-2.5 4-2.8 2.3-.7 3.9-3.9 2.8-5.6-.9-1.4-5.7-1.2-7.8.4zM541.4 1713.9c-1.1 1.2-.2 3.1 1.5 3.1 1.5 0 1.8.5 1.4 2.2l-.5 2.3 1.9-2.2c1-1.2 3.3-2.8 5.1-3.4 1.7-.6 3.2-1.5 3.2-2 0-.9-11.7-.9-12.6 0zM573.3 1715.5c-.8.9-.9 1.6-.3 2 .6.3 1.3-.1 1.6-1 .9-2.1.2-2.6-1.3-1zM521.1 1719.9c-.8.5-1 1.4-.6 2.1.4.7.2 1.6-.6 2.1-.7.4-1 1.1-.7 1.4.4.4 1.3.2 2-.4.7-.7 2.2-1.8 3.2-2.5 3.2-2.2.1-4.8-3.3-2.7zM533.9 1720.9c-1.9 1.6-2 2-.8 2.1 1.7 0 4.5-2.7 3.7-3.5-.3-.3-1.6.3-2.9 1.4zM494 1723.9c0 .5-1.5 1.9-3.4 3.2l-3.5 2.3 3.2 1.4c2.8 1.1 3.3 1.1 4.4-.5 2.8-4 3.5-4.4 6.6-3.7l3.2.6-1.9-2.1c-1.9-2.1-8.6-3.1-8.6-1.2zM529 1725.6c0 .8.5 1.2 1 .9.6-.3 1-1 1-1.6 0-.5-.4-.9-1-.9-.5 0-1 .7-1 1.6zM513 1727.4c0 1.6.6 2.6 1.4 2.6.9 0 1.2-.7.9-2-.8-3.1-2.3-3.4-2.3-.6zM480.6 1727.5c-1.1.8-2.9 1.5-4 1.5-1.5 0-1.7.3-.9 1.1.9.9 2.3.9 5.7-.1 4.8-1.3 5.7-2.4 3-3.4-1.9-.7-1.5-.8-3.8.9zM1206 1803.7c-1.9.7-3 2.4-2.9 4.3 0 1 .2 1.1.6.2.7-1.8 4-1.5 5.2.5.9 1.7 1.1 1.7 2.5-.2.8-1.1 1.6-2.3 1.6-2.8 0-.6-4.6-2.9-5.3-2.6-.1 0-.9.3-1.7.6zM1219.6 1805.1c-2 2.9-2.1 4.9-.1 4.9s3.8-3.7 2.7-5.6c-.8-1.4-1.1-1.3-2.6.7zM797 1809.1c0 .5.5.7 1 .4.6-.3 1-.8 1-1.1 0-.2-.4-.4-1-.4-.5 0-1 .5-1 1.1zM802 1810.7c0 .5.6 1.8 1.4 2.9 1.2 1.5 1.7 1.7 2.7.6 1.8-1.7 4.2-1.5 3.5.3-.3.8-.1 1.5.5 1.5s.8.9.4 2c-.3 1.1-.3 2 .2 2 1.4-.1 5-3.4 6.2-5.8 1.6-3.1 4-2.8 4.7.8.7 3.2 3.1 4.5 6.4 3.5 1.3-.4 2.2-.1 2.6.9.8 2.2 3.6 2 5.7-.4.9-1.1 2.1-2 2.5-2 .5 0 1.7.9 2.7 2 1.1 1.2 3.1 2 5.1 2 2.7 0 3.5-.5 4-2.5.3-1.4 1-2.5 1.5-2.5h1.7c.4 0 .7.8.8 1.8.1 1.7 4.2 6.9 4.8 6 .1-.1.8-1.1 1.5-2.1 1.2-1.5.9-2.1-2-5.2-2.9-3-4.1-3.5-8.1-3.5-2.6 0-5 .4-5.3 1-.8 1.4-5.2 1.3-6.1-.1-.4-.7-2.4-.9-5.4-.6-3.3.4-5.4.1-6.9-.9-1.1-.8-4-1.4-6.3-1.4-2.4.1-7.6-.2-11.5-.6-4.5-.4-7.3-.3-7.3.3zm32 5.7c0 .9-3 1.4-3.5.6-.4-.6.3-1 1.4-1 1.2 0 2.1.2 2.1.4zM1152.3 1811.3c-4.9 1.8-5.9 3.3-3.4 4.6 2.2 1.2 6.1 0 6.1-1.9 0-.6.8-1 1.9-1 1.3 0 2 1 2.5 3.1.3 1.7 1 2.8 1.6 2.4.6-.4.8-1 .5-1.5-.3-.4-.1-1 .5-1.2.5-.1 1.1-1.4 1.2-2.8.3-2.3-.1-2.5-3.7-2.7-2.2-.1-5.4.3-7.2 1zM1123.1 1813.8c-.8 1.5-.8 2.2.2 2.5.6.2-.5 1.1-2.5 2-4.3 1.8-4.2 1.6-2.8 5.1 1.2 3.3 2.6 3.3 3.4.1.5-2 1.3-2.5 3.7-2.5 1.7 0 2.8-.4 2.5-.9-.4-.5-.3-1.6 0-2.5.5-1.2 1-1.3 2.6-.5 1.1.6 2.6.8 3.5.5 2.4-1 .9-3-2.8-3.7-1.9-.4-4.2-1-5.1-1.3-1.1-.5-2-.1-2.7 1.2zM1086.7 1816.7c-1.3 1.2-.7 3.1 1.1 3.7.9.3 2.2.8 2.7 1.1 1.4.7 1.4-3.8.1-4.7-1.4-1-3.1-1-3.9-.1zM1093.6 1816.9c-.7 1.1 4.1 2.4 5.5 1.6.5-.4.7-1.1.4-1.6-.8-1.2-5.2-1.2-5.9 0zM1103.7 1816.6c-.7.7 1.2 2.8 3.3 3.7 1 .3.7.6-.7.6-1.3.1-2.3.6-2.3 1.2s.8.8 1.8.6c.9-.3 3.4-.8 5.5-1.2 2.1-.3 3.7-1.2 3.7-1.9 0-2.3-9.5-4.8-11.3-3zM875.8 1818.2c-.3.7-.6 3.2-.7 5.6-.2 4.1-.1 4.3 1.9 3.2 1.2-.6 2.5-2.2 3-3.6.6-1.4 1.7-2.4 3-2.4 2.4 0 2.7-2.5.4-3.4-2.7-1-7.2-.7-7.6.6zM890 1820c-1.6 1-1.1 1.2 3.8 2.3 1.8.4 8.9-2 7.2-2.4-2.5-.7-9.9-.6-11 .1zM903.9 1819.7c-1.1.3-1.5 1.2-1.1 2.8.5 3.1 3.2 3.3 5.7.5 2.3-2.5 3.5-2.5 3.5-.1 0 2.5 1.8 3.7 3.3 2.2.6-.6 2.3-1.1 3.7-1.1 1.4 0 3-.4 3.6-1 .5-.5 2.5-1.1 4.4-1.2 3.2-.3 3.4-.1 3.7 3.1.4 4.3 1.2 5.2 2 2.3.6-2.4 1.9-2.9 2.5-1.1.6 1.8 5.6 1.3 7.8-.6 3-2.7 2.4-4.3-1.7-5.4-5.2-1.5-18.9-1.4-21.3.1-1.5 1-2.6 1-5.3 0-3.3-1.2-7.6-1.4-10.8-.5zM961.4 1819.8c-1.1.7-3.4 4.5-3.4 5.6 0 .3.8.6 1.8.6 1.1 0 2.7.9 3.7 2 1.3 1.5 3.1 2 6.7 2 3 0 4.7.4 4.3 1-.3.5-.1 1 .4 1 .6 0 1.1-.7 1.1-1.5s-.7-1.5-1.5-1.5-1.5-.4-1.5-.9-1.2-1.4-2.7-1.9l-2.8-1 3.1-.1c1.8-.1 3.4-.7 3.7-1.6.8-1.9-.3-2.5-4.7-2.3-2 .1-4.2-.4-4.8-1-1.4-1.4-1.9-1.4-3.4-.4zM1029.2 1820.2c.3.7 1.7 1.4 3.2 1.6 2 .3 2.7 0 2.4-1-.3-.7-1.7-1.4-3.2-1.6-2-.3-2.7 0-2.4 1zM1043.3 1819.7c-3.3.6-2.8 2.3.7 2.3 3.6 0 11 3.7 11 5.5 0 2.1 1.9 2.8 3.5 1.5 1.8-1.5 2-5 .4-5-.6 0-2-1.1-3.1-2.5-1.9-2.5-5.9-3.1-12.5-1.8zM1060.2 1819.8c-1.1.7-1 1.1.1 2 1.7 1.4 8.9.4 8.4-1.2-.4-1.4-6.7-1.9-8.5-.8zM1077.6 1819.9c-.3.4.3 1.6 1.3 2.5 2.1 1.9 3.7.7 2.7-1.9-.6-1.6-3.2-2-4-.6zM947.7 1821.2c.6.7 1.6 3 2.2 5.1.7 2 2.1 4.2 3.2 4.7 1.7.9 1.9.7 1.9-1.9 0-1.6-.6-3.2-1.2-3.4-1-.4-1-.6 0-.6 2.2-.2 1.3-3.8-1-4.5-4-1-6.2-.7-5.1.6zM864.8 1822.7c.5 1 .7 2.5.5 3.3-.3.8.2.5 1.2-.8 1.7-2.4 1.3-4.2-1.1-4.2-1.1 0-1.2.5-.6 1.7zM1093.8 1822.7c.7.3 1.6.2 1.9-.1.4-.3-.2-.6-1.3-.5-1.1 0-1.4.3-.6.6z"/><path d="M1042.7 1823.7c-.4.3-.7 1.9-.7 3.5 0 3.5 2.7 3.8 3.6.4.8-3.5-1-5.9-2.9-3.9zM1020.4 1826.2c-.5.7-2 1.9-3.4 2.5-2.4 1.1-2.4 1.2 1.3 1.2 2.5.1 4-.4 4.4-1.5.8-2.1-1.2-4-2.3-2.2zM882.5 1827c.3.5 1.1 1 1.6 1 .6 0 .7-.5.4-1-.3-.6-1.1-1-1.6-1-.6 0-.7.4-.4 1zM909 1827.9c0 2.1 1.7 3.1 3.8 2.3 1.7-.6 1.5-2.9-.4-3.6-2.6-1-3.4-.7-3.4 1.3zM922 1831.2c0 1.8 1.8 3.4 2.8 2.4.3-.4-.2-1.4-1.1-2.3-1.6-1.6-1.7-1.6-1.7-.1zM983 1831c0 .5.5 1 1.1 1 .5 0 .7-.5.4-1-.3-.6-.8-1-1.1-1-.2 0-.4.4-.4 1z"/></svg>